<svg xmlns="http://www.w3.org/2000/svg" width="110" height="110" viewBox="0 0 110 110">
  <g id="icon-chatboxes" transform="translate(73.185 70.269)">
    <path id="Pfad_22" data-name="Pfad 22" d="M104.613,11.981H25.319c-7.514,0-13.633,6.407-13.633,14.276V84.073c0,7.869,6.119,14.239,13.633,14.239H70.691a3.825,3.825,0,0,1,2.719,1.2l22.543,21.77c1.252,1.274,3.328.749,3.328-1.087v-18.96c0-2.248,1.36-2.96,3.507-2.96h.358c7.514,0,15.064-6.332,15.064-14.239V26.257C118.246,18.351,112.127,11.981,104.613,11.981Z" transform="translate(-83.133 -82.251)" fill="#038c7f"/>
    <path id="Pfad_23" data-name="Pfad 23" d="M49.142,3.375h0Z" transform="translate(-76.56 34.354)" fill="#038c7f"/>
  </g>
</svg>
