<svg xmlns="http://www.w3.org/2000/svg" width="110" height="110" viewBox="0 0 110 110">
  <path id="icon-settings" d="M105.419,59.486a14.151,14.151,0,0,1,9.081-13.2,56.085,56.085,0,0,0-6.789-16.353,14.348,14.348,0,0,1-5.758,1.231A14.12,14.12,0,0,1,89.034,11.287,55.945,55.945,0,0,0,72.706,4.5,14.167,14.167,0,0,1,59.5,13.578,14.167,14.167,0,0,1,46.294,4.5a56.115,56.115,0,0,0-16.357,6.787A14.12,14.12,0,0,1,17.018,31.162a13.881,13.881,0,0,1-5.758-1.231A57.324,57.324,0,0,0,4.5,46.312a14.135,14.135,0,0,1,9.081,13.2,14.167,14.167,0,0,1-9.052,13.2,56.085,56.085,0,0,0,6.789,16.353,14.127,14.127,0,0,1,18.648,18.644A56.442,56.442,0,0,0,46.323,114.5a14.118,14.118,0,0,1,26.354,0,56.115,56.115,0,0,0,16.357-6.787,14.142,14.142,0,0,1,18.648-18.644,56.411,56.411,0,0,0,6.789-16.353A14.219,14.219,0,0,1,105.419,59.486ZM59.758,82.368A22.911,22.911,0,1,1,82.674,59.457,22.907,22.907,0,0,1,59.758,82.368Z" transform="translate(-4.5 -4.5)" fill="#038c7f"/>
</svg>
