<svg xmlns="http://www.w3.org/2000/svg" width="110" height="110" viewBox="0 0 110 110">
  <path id="icon-calendar" d="M39.237,43.178H53.9v13.75H39.237Zm22,0H75.9v13.75H61.237Zm22,0H97.9v13.75H83.237Zm-66,41.25H31.9v13.75H17.237Zm22,0H53.9v13.75H39.237Zm22,0H75.9v13.75H61.237Zm-22-20.625H53.9v13.75H39.237Zm22,0H75.9v13.75H61.237Zm22,0H97.9v13.75H83.237Zm-66,0H31.9v13.75H17.237ZM97.9,1.928V8.8H83.237V1.928H31.9V8.8H17.237V1.928H2.571v110h110v-110H97.9Zm7.333,103.125H9.9V29.428h95.333Z" transform="translate(-2.571 -1.928)" fill="#038c7f"/>
</svg>
