<svg xmlns="http://www.w3.org/2000/svg" width="160.789" height="160.789" viewBox="0 0 160.789 160.789">
  <g id="logo-invert" transform="translate(387.617 1169.297)">
    <path id="Icon_feather-hexagon" data-name="Icon feather-hexagon" d="M165.289,115.562V51.233a15.867,15.867,0,0,0-8.933-13.911L93.827,5.158a19.594,19.594,0,0,0-17.865,0L13.433,37.322A15.867,15.867,0,0,0,4.5,51.233v64.329a15.867,15.867,0,0,0,8.933,13.911l62.529,32.164a19.594,19.594,0,0,0,17.865,0l62.529-32.164a15.867,15.867,0,0,0,8.933-13.911Z" transform="translate(-392.117 -1172.3)" fill="#fff"/>
    <g id="Icon_ionic-ios-people" data-name="Icon ionic-ios-people" transform="translate(-307.815 -1116.697)">
      <path id="Pfad_3" data-name="Pfad 3" d="M31.957,30.687c-1.144-.409-3.014-.429-3.842-.746a5.428,5.428,0,0,1-1.778-.828,10.986,10.986,0,0,1-.3-2.912,4.7,4.7,0,0,0,1.012-1.43,15.9,15.9,0,0,0,.49-2.81s.674.286.94-1.063c.225-1.165.654-1.778.542-2.636s-.593-.654-.593-.654.593-.868.593-3.821c0-3.045-2.3-6.039-6.6-6.039s-6.611,3-6.611,6.039c0,2.953.582,3.821.582,3.821s-.48-.2-.593.654.307,1.471.542,2.636c.266,1.359.94,1.063.94,1.063a16.051,16.051,0,0,0,.49,2.81,4.7,4.7,0,0,0,1.012,1.43,10.986,10.986,0,0,1-.3,2.912,5.224,5.224,0,0,1-1.778.817c-.817.317-2.687.358-3.842.766a7.211,7.211,0,0,0-4.68,6.866H36.627A7.2,7.2,0,0,0,31.957,30.687Z" transform="translate(0.493 -7.748)" fill="#21bf48"/>
      <path id="Pfad_4" data-name="Pfad 4" d="M13.3,24.143s2.442-.082,3.413-.95c-1.584-2.4-.725-5.2-1.052-7.816s-1.808-4.169-4.772-4.169h-.041a4.324,4.324,0,0,0-4.731,4.169c-.327,2.605.582,5.722-1.042,7.816.971.879,3.423.848,3.423.848h0a5.175,5.175,0,0,1-.1,1.717,2.58,2.58,0,0,1-1.226.562,23.707,23.707,0,0,0-2.646.736,4.3,4.3,0,0,0-2.309,3.8h8.2c.225-.817,1.768-2.278,3.27-3.045a6.861,6.861,0,0,1,2.524-.531s.388-.613-.889-.848a8.71,8.71,0,0,1-1.962-.685C13.168,25.522,13.3,24.143,13.3,24.143Z" transform="translate(-2.215 -6.181)" fill="#21bf48"/>
      <path id="Pfad_5" data-name="Pfad 5" d="M27.22,24.143s-2.442-.082-3.413-.95c1.584-2.4.725-5.2,1.052-7.816s1.808-4.169,4.772-4.169h.041A4.324,4.324,0,0,1,34.4,15.377c.327,2.605-.582,5.722,1.042,7.816-.971.879-3.423.848-3.423.848h0a5.175,5.175,0,0,0,.1,1.717,2.58,2.58,0,0,0,1.226.562A23.707,23.707,0,0,1,36,27.055a4.3,4.3,0,0,1,2.309,3.8H30.1c-.225-.817-1.768-2.278-3.27-3.045a6.861,6.861,0,0,0-2.524-.531s-.388-.613.889-.848a8.71,8.71,0,0,0,1.962-.685C27.353,25.522,27.22,24.143,27.22,24.143Z" transform="translate(7.57 -6.181)" fill="#21bf48"/>
    </g>
    <path id="Icon_simple-openstreetmap" data-name="Icon simple-openstreetmap" d="M12.75,108.279c-1.687-.4-2.559-1.057-7.048-5.276C.354,97.975.014,97.482.033,94.862c0-2.914-.939-1.87,16.137-18.006,17.249-16.3,16.362-15.589,19.472-15.58a5.165,5.165,0,0,1,2.971.632l1.327.632L48.3,54.662l-1.045-1.549a36.488,36.488,0,0,1-4.82-10.973,33.1,33.1,0,0,1,7.086-29.092C61.449-1.046,82.861-4.172,98.678,5.874A34.626,34.626,0,0,1,114.623,29.88a43.74,43.74,0,0,1,0,9.369,33.453,33.453,0,0,1-10.565,19.885,32.174,32.174,0,0,1-9.31,6.329,36.409,36.409,0,0,1-13.8,3.627,38.853,38.853,0,0,1-22.309-5.254l-1.643-.985L48.637,70.73,49.308,72a4.359,4.359,0,0,1,.671,2.787c.014,2.941.747,2.11-16.415,18.291C20.334,105.523,18.3,107.366,17.282,107.8a8.326,8.326,0,0,1-4.528.479Zm70.974-45.26a30.611,30.611,0,0,0,22.055-15.856c6.665-13.1,2.18-28.487-10.67-36.627A34.2,34.2,0,0,0,83.767,6.191,40.38,40.38,0,0,0,72.2,6.3,32.6,32.6,0,0,0,60.452,11.11a37.848,37.848,0,0,0-7.125,6.717,27.566,27.566,0,0,0,1.821,35.719A31.248,31.248,0,0,0,73.839,63.2a41.978,41.978,0,0,0,9.894-.167Zm-17.91,33.32q-5.283-1.4-10.522-2.941c-.12-.127,5.783-19.858,6.023-20.1.11-.117,20.325,5.2,21.149,5.583.3.117-.014,1.3-2.515,9.5q-1.537,5.046-3.042,10.1c-.12.394-.331.705-.465.705s-4.925-1.3-10.632-2.85Zm13.952,2.367c0-.239,5.879-19.574,5.97-19.637.225-.154,20.718-5.556,20.8-5.471s-5.745,19.592-5.893,19.7c-.1.086-19.769,5.38-20.406,5.5-.259.05-.47,0-.47-.086ZM45.724,90.074c4.053-3.849,7.661-7.35,8.021-7.806a15.213,15.213,0,0,0,2.262-4.585,14.7,14.7,0,0,0,.278-2.358l.053-1.387.872-.23a2.837,2.837,0,0,1,.968-.154c.11.113-5.783,19.52-5.97,19.7-.1.072-3.244.962-7.015,1.97l-6.828,1.83,7.364-6.966ZM85.439,76.251a5.94,5.94,0,0,1-.283-.845l-.211-.7.747-.126a46.036,46.036,0,0,0,18.725-7.738c.767-.565,1.207-.772,1.27-.605.259.745,1.3,4.291,1.27,4.332-.163.154-21.465,5.791-21.523,5.7ZM13.171,70.378C12.932,70.2,7.522,52.914,7.115,51c-.077-.379.7-.2,10.416,2.421,10.162,2.728,10.5,2.841,10.646,3.343.134.443.053.583-.6,1.007-.4.267-3.685,3.271-7.3,6.681q-3.28,3.135-6.66,6.175a1.24,1.24,0,0,1-.446-.244ZM17.1,50.6c-5.692-1.549-10.368-2.814-10.383-2.828-.077-.054,6.042-20.025,6.157-20.147.105-.1,21.187,5.471,21.413,5.656.043.041-1.289,4.594-2.961,10.114-2.76,9.125-3.081,10.047-3.464,10.029-.24-.014-5.074-1.287-10.766-2.828Zm14.178,2.43c.057-.14,1.016-3.266,2.127-6.93l2.012-6.668.268,1.45a45.3,45.3,0,0,0,2.223,7.865c.508,1.337.9,2.435.867,2.462s-1.591.456-3.445.958-3.55.949-3.766,1.012c-.278.072-.359.027-.283-.154ZM23.449,27.612C17.761,26.081,13.066,24.743,13,24.658c-.192-.28-5.97-19.52-5.893-19.6.125-.113,20.651,5.439,20.847,5.629.225.23,6.133,19.782,5.97,19.768L23.473,27.617ZM33.74,19.874l-2.487-8.158-.374-1.265,8.112-2.182c4.475-1.2,8.26-2.236,8.433-2.295s-.4.632-1.246,1.518a38.833,38.833,0,0,0-9.386,16.136,18.7,18.7,0,0,0-.632,2.534c0,1.324-.551-.113-2.42-6.279Z" transform="translate(-364.703 -1141.813)" fill="#21bf48"/>
  </g>
</svg>
